<svg width="1141" height="359" viewBox="0 0 1141 359" fill="none" xmlns="http://www.w3.org/2000/svg">
<g id="vikranth">
<path id="Vikranth" d="M176.828 82.3438L179.203 83.1239L180.281 79.8438H176.828V82.3438ZM110.594 284V286.5H112.404L112.969 284.78L110.594 284ZM70.2344 284L67.8582 284.777L68.4217 286.5H70.2344V284ZM4.28125 82.3438V79.8438H0.833295L1.90511 83.1209L4.28125 82.3438ZM50.125 82.3438L52.5203 81.6279L51.9871 79.8438H50.125V82.3438ZM90.3438 216.922L87.9484 217.638L90.3396 225.639L92.7384 217.64L90.3438 216.922ZM130.703 82.3438V79.8438H128.843L128.308 81.6256L130.703 82.3438ZM174.453 81.5636L108.219 283.22L112.969 284.78L179.203 83.1239L174.453 81.5636ZM110.594 281.5H70.2344V286.5H110.594V281.5ZM72.6105 283.223L6.65739 81.5666L1.90511 83.1209L67.8582 284.777L72.6105 283.223ZM4.28125 84.8438H50.125V79.8438H4.28125V84.8438ZM47.7297 83.0596L87.9484 217.638L92.7391 216.206L52.5203 81.6279L47.7297 83.0596ZM92.7384 217.64L133.098 83.0619L128.308 81.6256L87.9491 216.204L92.7384 217.64ZM130.703 84.8438H176.828V79.8438H130.703V84.8438ZM235.328 102.453L233.052 101.419L233.039 101.448L233.027 101.477L235.328 102.453ZM229.844 110.609L231.575 112.413L231.593 112.395L231.612 112.377L229.844 110.609ZM221.547 116.094L222.523 118.395L222.54 118.388L222.556 118.381L221.547 116.094ZM201.438 116.094L200.403 118.37L200.444 118.388L200.486 118.405L201.438 116.094ZM193.281 110.609L191.478 112.341L191.513 112.378L191.55 112.413L193.281 110.609ZM187.797 102.453L185.495 103.429L185.508 103.459L185.521 103.488L187.797 102.453ZM187.797 82.625L185.51 81.6159L185.502 81.6322L185.495 81.6486L187.797 82.625ZM201.438 68.9844L202.414 71.2858L202.43 71.2789L202.447 71.2717L201.438 68.9844ZM221.547 68.9844L220.512 71.2603L220.553 71.2789L220.595 71.2961L221.547 68.9844ZM229.844 74.4688L228.076 76.2365L228.094 76.2546L228.112 76.2722L229.844 74.4688ZM235.328 82.625L233.016 83.5769L233.034 83.6185L233.052 83.6595L235.328 82.625ZM230.828 284V286.5H233.328V284H230.828ZM192.156 284H189.656V286.5H192.156V284ZM192.156 133.391V130.891H189.656V133.391H192.156ZM230.828 133.391H233.328V130.891H230.828V133.391ZM234.938 92.4688C234.938 95.692 234.304 98.6654 233.052 101.419L237.604 103.488C239.165 100.053 239.938 96.3705 239.938 92.4688H234.938ZM233.027 101.477C231.838 104.279 230.189 106.728 228.076 108.842L231.612 112.377C234.186 109.803 236.193 106.815 237.63 103.429L233.027 101.477ZM228.112 108.806C225.994 110.84 223.478 112.51 220.538 113.806L222.556 118.381C225.991 116.865 229.006 114.879 231.575 112.413L228.112 108.806ZM220.571 113.792C217.804 114.966 214.81 115.562 211.562 115.562V120.562C215.44 120.562 219.102 119.846 222.523 118.395L220.571 113.792ZM211.562 115.562C208.315 115.562 205.265 114.966 202.389 113.782L200.486 118.405C203.985 119.846 207.685 120.562 211.562 120.562V115.562ZM202.472 113.818C199.624 112.523 197.143 110.851 195.013 108.806L191.55 112.413C194.107 114.867 197.064 116.852 200.403 118.37L202.472 113.818ZM195.085 108.878C193.039 106.747 191.368 104.267 190.073 101.419L185.521 103.488C187.039 106.827 189.023 109.784 191.478 112.341L195.085 108.878ZM190.098 101.477C188.925 98.7101 188.328 95.7162 188.328 92.4688H183.328C183.328 96.3463 184.044 100.009 185.495 103.429L190.098 101.477ZM188.328 92.4688C188.328 89.3244 188.921 86.3763 190.098 83.6014L185.495 81.6486C184.048 85.0612 183.328 88.6756 183.328 92.4688H188.328ZM190.084 83.6341C191.378 80.7025 193.037 78.2481 195.049 76.2365L191.513 72.701C189.025 75.1894 187.029 78.1725 185.51 81.6159L190.084 83.6341ZM195.049 76.2365C197.162 74.1231 199.612 72.4747 202.414 71.2858L200.461 66.6829C197.076 68.1191 194.088 70.1269 191.513 72.701L195.049 76.2365ZM202.447 71.2717C205.309 70.0089 208.339 69.375 211.562 69.375V64.375C207.661 64.375 203.941 65.1474 200.428 66.6971L202.447 71.2717ZM211.562 69.375C214.786 69.375 217.759 70.0088 220.512 71.2603L222.581 66.7085C219.147 65.1474 215.464 64.375 211.562 64.375V69.375ZM220.595 71.2961C223.49 72.488 225.975 74.1355 228.076 76.2365L231.612 72.701C229.025 70.1145 225.979 68.1057 222.499 66.6727L220.595 71.2961ZM228.112 76.2722C230.191 78.2673 231.828 80.6905 233.016 83.5769L237.64 81.6731C236.203 78.1845 234.184 75.1702 231.575 72.6653L228.112 76.2722ZM233.052 83.6595C234.308 86.4215 234.938 89.3493 234.938 92.4688H239.938C239.938 88.6507 239.161 85.016 237.604 81.5905L233.052 83.6595ZM230.828 281.5H192.156V286.5H230.828V281.5ZM194.656 284V133.391H189.656V284H194.656ZM192.156 135.891H230.828V130.891H192.156V135.891ZM228.328 133.391V284H233.328V133.391H228.328ZM298.891 284V286.5H301.391V284H298.891ZM260.219 284H257.719V286.5H260.219V284ZM260.219 73.4844V70.9844H257.719V73.4844H260.219ZM298.891 73.4844H301.391V70.9844H298.891V73.4844ZM298.891 206.234H296.391V213.441L300.854 207.783L298.891 206.234ZM356.125 133.672V131.172H354.913L354.162 132.124L356.125 133.672ZM400.281 133.672L402.237 135.229L405.466 131.172H400.281V133.672ZM350.359 196.391L348.403 194.834L347.349 196.158L348.187 197.628L350.359 196.391ZM400.281 284V286.5H404.583L402.453 282.762L400.281 284ZM356.125 284L353.942 285.218L354.657 286.5H356.125V284ZM325.609 229.297L327.793 228.079L325.923 224.728L323.613 227.792L325.609 229.297ZM298.891 264.734L296.894 263.229L296.391 263.898V264.734H298.891ZM298.891 281.5H260.219V286.5H298.891V281.5ZM262.719 284V73.4844H257.719V284H262.719ZM260.219 75.9844H298.891V70.9844H260.219V75.9844ZM296.391 73.4844V206.234H301.391V73.4844H296.391ZM300.854 207.783L358.088 135.22L354.162 132.124L296.928 204.686L300.854 207.783ZM356.125 136.172H400.281V131.172H356.125V136.172ZM398.325 132.115L348.403 194.834L352.315 197.948L402.237 135.229L398.325 132.115ZM348.187 197.628L398.109 285.238L402.453 282.762L352.531 195.153L348.187 197.628ZM400.281 281.5H356.125V286.5H400.281V281.5ZM358.308 282.782L327.793 228.079L323.426 230.515L353.942 285.218L358.308 282.782ZM323.613 227.792L296.894 263.229L300.887 266.239L327.606 230.802L323.613 227.792ZM296.391 264.734V284H301.391V264.734H296.391ZM453.859 284V286.5H456.359V284H453.859ZM415.469 284H412.969V286.5H415.469V284ZM415.469 133.391V130.891H412.969V133.391H415.469ZM424.75 133.391L426.79 131.945L426.042 130.891H424.75V133.391ZM437.406 151.25L435.367 152.695L436.999 154.999L439.088 153.1L437.406 151.25ZM458.5 138.312L459.39 140.649L459.402 140.644L459.414 140.639L458.5 138.312ZM516.859 133.672H519.359V131.172H516.859V133.672ZM516.859 171.922V174.422H519.359V171.922H516.859ZM453.859 281.5H415.469V286.5H453.859V281.5ZM417.969 284V133.391H412.969V284H417.969ZM415.469 135.891H424.75V130.891H415.469V135.891ZM422.71 134.836L435.367 152.695L439.446 149.805L426.79 131.945L422.71 134.836ZM439.088 153.1C445.042 147.687 451.805 143.538 459.39 140.649L457.61 135.976C449.445 139.087 442.145 143.563 435.725 149.4L439.088 153.1ZM459.414 140.639C466.999 137.66 474.845 136.172 482.969 136.172V131.172C474.218 131.172 465.751 132.778 457.586 135.986L459.414 140.639ZM482.969 136.172H516.859V131.172H482.969V136.172ZM514.359 133.672V171.922H519.359V133.672H514.359ZM516.859 169.422H482.969V174.422H516.859V169.422ZM482.969 169.422C478.619 169.422 474.491 170.233 470.608 171.868L472.548 176.476C475.791 175.111 479.256 174.422 482.969 174.422V169.422ZM470.608 171.868C466.76 173.488 463.392 175.729 460.529 178.592L464.065 182.127C466.452 179.74 469.271 177.856 472.548 176.476L470.608 171.868ZM460.529 178.592C457.666 181.455 455.426 184.822 453.805 188.67L458.413 190.611C459.793 187.334 461.678 184.514 464.065 182.127L460.529 178.592ZM453.805 188.67C452.17 192.553 451.359 196.681 451.359 201.031H456.359C456.359 197.319 457.048 193.853 458.413 190.611L453.805 188.67ZM451.359 201.031V284H456.359V201.031H451.359ZM677.734 284V286.5H680.234V284H677.734ZM668.453 284L666.425 285.462L667.174 286.5H668.453V284ZM653.547 263.328L655.575 261.866L653.948 259.609L651.877 261.468L653.547 263.328ZM641.875 272.609L643.305 274.66L643.315 274.653L641.875 272.609ZM629.078 280.062L630.12 282.335L630.139 282.326L630.158 282.317L629.078 280.062ZM615.156 284.984L614.539 282.562L614.527 282.565L615.156 284.984ZM570.859 281.469L569.964 283.803L569.971 283.806L570.859 281.469ZM546.391 266L544.635 267.78L544.647 267.792L544.659 267.803L546.391 266ZM529.938 175.156L532.248 176.111L532.251 176.104L529.938 175.156ZM546.391 149.844L544.623 148.076L544.617 148.082L544.611 148.088L546.391 149.844ZM570.859 133.531L571.816 135.841L571.827 135.836L570.859 133.531ZM642.016 142.109L640.554 144.137L640.565 144.145L640.576 144.153L642.016 142.109ZM653.547 151.531L651.828 153.346L653.76 155.177L655.466 153.133L653.547 151.531ZM668.453 133.672V131.172H667.283L666.534 132.07L668.453 133.672ZM677.734 133.672H680.234V131.172H677.734V133.672ZM635.969 192.172L633.645 193.093L633.655 193.12L633.666 193.146L635.969 192.172ZM627.812 179.094L625.957 180.769L625.967 180.78L625.977 180.791L627.812 179.094ZM615.578 169.953L614.442 172.18L614.469 172.194L614.496 172.207L615.578 169.953ZM585.906 169.109L585.018 166.772L585.01 166.775L585.002 166.778L585.906 169.109ZM573.812 176.984L572.045 175.217L572.033 175.229L572.021 175.241L573.812 176.984ZM565.797 189.922L568.127 190.828L568.13 190.821L568.132 190.814L565.797 189.922ZM565.797 224.938L563.461 225.829L563.464 225.836L563.467 225.844L565.797 224.938ZM573.812 237.734L572.021 239.478L572.033 239.49L572.045 239.502L573.812 237.734ZM585.906 245.609L585.002 247.94L585.01 247.943L585.018 247.946L585.906 245.609ZM615.578 244.906L616.678 247.151L616.687 247.147L616.696 247.142L615.578 244.906ZM627.812 235.766L629.648 237.463L629.658 237.452L629.668 237.441L627.812 235.766ZM635.969 222.688L633.66 221.729L633.655 221.74L633.651 221.751L635.969 222.688ZM677.734 281.5H668.453V286.5H677.734V281.5ZM670.481 282.538L655.575 261.866L651.519 264.79L666.425 285.462L670.481 282.538ZM651.877 261.468C648.296 264.682 644.482 267.714 640.435 270.566L643.315 274.653C647.518 271.692 651.485 268.537 655.217 265.189L651.877 261.468ZM640.445 270.559C636.526 273.293 632.378 275.709 627.998 277.808L630.158 282.317C634.779 280.103 639.162 277.551 643.305 274.66L640.445 270.559ZM628.036 277.79C623.673 279.79 619.174 281.38 614.539 282.562L615.774 287.407C620.701 286.151 625.484 284.46 630.12 282.335L628.036 277.79ZM614.527 282.565C610.046 283.73 605.477 284.312 600.812 284.312V289.312C605.898 289.312 610.891 288.676 615.785 287.404L614.527 282.565ZM600.812 284.312C590.505 284.312 580.823 282.581 571.747 279.132L569.971 283.806C579.646 287.482 589.933 289.312 600.812 289.312V284.312ZM571.755 279.135C562.779 275.689 554.908 270.711 548.122 264.197L544.659 267.803C551.936 274.789 560.378 280.123 569.964 283.803L571.755 279.135ZM548.146 264.22C541.47 257.634 536.166 249.582 532.251 240.021L527.624 241.916C531.771 252.043 537.436 260.678 544.635 267.78L548.146 264.22ZM532.251 240.021C528.363 230.527 526.391 219.655 526.391 207.359H521.391C521.391 220.189 523.449 231.723 527.624 241.916L532.251 240.021ZM526.391 207.359C526.391 195.932 528.355 185.527 532.248 176.111L527.627 174.201C523.458 184.286 521.391 195.349 521.391 207.359H526.391ZM532.251 176.104C536.168 166.538 541.479 158.381 548.17 151.6L544.611 148.088C537.427 155.369 531.769 164.087 527.624 174.209L532.251 176.104ZM548.158 151.612C554.955 144.815 562.835 139.56 571.816 135.841L569.903 131.221C560.321 135.19 551.889 140.81 544.623 148.076L548.158 151.612ZM571.827 135.836C580.883 132.033 590.537 130.125 600.812 130.125V125.125C589.9 125.125 579.586 127.155 569.891 131.226L571.827 135.836ZM600.812 130.125C605.477 130.125 610.097 130.708 614.679 131.876L615.914 127.031C610.934 125.761 605.898 125.125 600.812 125.125V130.125ZM614.679 131.876C619.299 133.053 623.785 134.684 628.138 136.77L630.299 132.261C625.652 130.035 620.857 128.29 615.914 127.031L614.679 131.876ZM628.138 136.77C632.505 138.863 636.643 141.318 640.554 144.137L643.478 140.081C639.326 137.088 634.932 134.481 630.299 132.261L628.138 136.77ZM640.576 144.153C644.605 146.992 648.355 150.056 651.828 153.346L655.266 149.716C651.614 146.256 647.676 143.039 643.456 140.066L640.576 144.153ZM655.466 153.133L670.372 135.274L666.534 132.07L651.628 149.929L655.466 153.133ZM668.453 136.172H677.734V131.172H668.453V136.172ZM675.234 133.672V284H680.234V133.672H675.234ZM641.562 207.359C641.562 201.772 640.463 196.378 638.271 191.198L633.666 193.146C635.6 197.715 636.562 202.447 636.562 207.359H641.562ZM638.293 191.251C636.216 186.009 633.336 181.383 629.648 177.396L625.977 180.791C629.227 184.304 631.784 188.397 633.645 193.093L638.293 191.251ZM629.668 177.419C625.981 173.333 621.639 170.089 616.66 167.699L614.496 172.207C618.892 174.317 622.707 177.167 625.957 180.769L629.668 177.419ZM616.714 167.726C611.762 165.2 606.45 163.938 600.812 163.938V168.938C605.675 168.938 610.207 170.019 614.442 172.18L616.714 167.726ZM600.812 163.938C595.273 163.938 590.003 164.878 585.018 166.772L586.794 171.446C591.185 169.778 595.852 168.938 600.812 168.938V163.938ZM585.002 166.778C580.086 168.685 575.76 171.501 572.045 175.217L575.58 178.752C578.802 175.53 582.539 173.096 586.81 171.44L585.002 166.778ZM572.021 175.241C568.377 178.986 565.534 183.6 563.461 189.03L568.132 190.814C569.997 185.931 572.498 181.921 575.604 178.728L572.021 175.241ZM563.467 189.016C561.365 194.42 560.344 200.55 560.344 207.359H565.344C565.344 201.044 566.291 195.548 568.127 190.828L563.467 189.016ZM560.344 207.359C560.344 214.17 561.365 220.34 563.461 225.829L568.132 224.046C566.291 219.222 565.344 213.673 565.344 207.359H560.344ZM563.467 225.844C565.542 231.18 568.385 235.741 572.021 239.478L575.604 235.991C572.49 232.79 569.989 228.82 568.127 224.031L563.467 225.844ZM572.045 239.502C575.76 243.218 580.086 246.034 585.002 247.94L586.81 243.278C582.539 241.622 578.802 239.189 575.58 235.967L572.045 239.502ZM585.018 247.946C590.003 249.84 595.273 250.781 600.812 250.781V245.781C595.852 245.781 591.185 244.941 586.794 243.272L585.018 247.946ZM600.812 250.781C606.433 250.781 611.733 249.574 616.678 247.151L614.478 242.661C610.236 244.739 605.692 245.781 600.812 245.781V250.781ZM616.696 247.142C621.646 244.667 625.969 241.44 629.648 237.463L625.977 234.068C622.718 237.591 618.885 240.458 614.46 242.67L616.696 247.142ZM629.668 237.441C633.336 233.376 636.21 228.766 638.287 223.624L633.651 221.751C631.79 226.359 629.226 230.468 625.957 234.091L629.668 237.441ZM638.278 223.646C640.463 218.381 641.562 212.947 641.562 207.359H636.562C636.562 212.272 635.599 217.056 633.66 221.729L638.278 223.646ZM745.516 284V286.5H748.016V284H745.516ZM707.125 284H704.625V286.5H707.125V284ZM707.125 133.391V130.891H704.625V133.391H707.125ZM716.406 133.391L718.297 131.755L717.549 130.891H716.406V133.391ZM729.062 148.016L727.172 149.652L728.849 151.589L730.744 149.865L729.062 148.016ZM750.016 135.078L750.915 137.411L750.922 137.408L750.93 137.405L750.016 135.078ZM800.641 135.781L799.64 138.072L799.651 138.077L799.662 138.082L800.641 135.781ZM822.016 150.266L820.234 152.02L820.241 152.027L820.248 152.033L822.016 150.266ZM836.359 171.781L834.055 172.75L834.061 172.766L834.068 172.782L836.359 171.781ZM841.703 284V286.5H844.203V284H841.703ZM803.312 284H800.812V286.5H803.312V284ZM801.062 186.828L798.758 187.798L798.763 187.809L798.768 187.82L801.062 186.828ZM747.766 186.828L750.06 187.82L750.065 187.809L750.07 187.798L747.766 186.828ZM745.516 281.5H707.125V286.5H745.516V281.5ZM709.625 284V133.391H704.625V284H709.625ZM707.125 135.891H716.406V130.891H707.125V135.891ZM714.516 135.027L727.172 149.652L730.953 146.38L718.297 131.755L714.516 135.027ZM730.744 149.865C736.704 144.448 743.423 140.299 750.915 137.411L749.116 132.745C741.046 135.857 733.796 140.333 727.381 146.166L730.744 149.865ZM750.93 137.405C758.511 134.427 766.404 132.938 774.625 132.938V127.938C765.784 127.938 757.27 129.542 749.101 132.751L750.93 137.405ZM774.625 132.938C783.479 132.938 791.81 134.652 799.64 138.072L801.641 133.49C793.159 129.785 784.146 127.938 774.625 127.938V132.938ZM799.662 138.082C807.524 141.425 814.375 146.07 820.234 152.02L823.797 148.511C817.469 142.086 810.07 137.075 801.619 133.481L799.662 138.082ZM820.248 152.033C826.104 157.889 830.707 164.787 834.055 172.75L838.664 170.812C835.075 162.275 830.115 154.829 823.783 148.498L820.248 152.033ZM834.068 172.782C837.487 180.609 839.203 188.986 839.203 197.938H844.203C844.203 188.327 842.357 179.266 838.65 170.781L834.068 172.782ZM839.203 197.938V284H844.203V197.938H839.203ZM841.703 281.5H803.312V286.5H841.703V281.5ZM805.812 284V197.938H800.812V284H805.812ZM805.812 197.938C805.812 193.673 804.998 189.631 803.357 185.836L798.768 187.82C800.127 190.963 800.812 194.327 800.812 197.938H805.812ZM803.367 185.858C801.746 182.01 799.506 178.642 796.643 175.779L793.107 179.315C795.494 181.702 797.379 184.521 798.758 187.798L803.367 185.858ZM796.643 175.779C793.791 172.927 790.479 170.688 786.727 169.065L784.742 173.654C787.927 175.031 790.709 176.917 793.107 179.315L796.643 175.779ZM786.727 169.065C782.931 167.424 778.889 166.609 774.625 166.609V171.609C778.236 171.609 781.6 172.295 784.742 173.654L786.727 169.065ZM774.625 166.609C770.275 166.609 766.147 167.42 762.264 169.055L764.205 173.663C767.447 172.298 770.912 171.609 774.625 171.609V166.609ZM762.264 169.055C758.416 170.676 755.048 172.916 752.185 175.779L755.721 179.315C758.108 176.928 760.928 175.043 764.205 173.663L762.264 169.055ZM752.185 175.779C749.322 178.642 747.082 182.01 745.462 185.858L750.07 187.798C751.449 184.521 753.334 181.702 755.721 179.315L752.185 175.779ZM745.471 185.836C743.83 189.631 743.016 193.673 743.016 197.938H748.016C748.016 194.327 748.701 190.963 750.06 187.82L745.471 185.836ZM743.016 197.938V284H748.016V197.938H743.016ZM916.516 278.797L915.515 281.088L915.526 281.093L915.537 281.097L916.516 278.797ZM895 264.312L893.219 266.067L893.232 266.08L893.246 266.094L895 264.312ZM880.516 242.797L878.215 243.775L878.22 243.786L878.225 243.798L880.516 242.797ZM875.312 171.922H877.812V169.422H875.312V171.922ZM856.609 171.922H854.109V174.422H856.609V171.922ZM856.609 133.672V131.172H854.109V133.672H856.609ZM875.312 133.672V136.172H877.812V133.672H875.312ZM875.312 73.4844V70.9844H872.812V73.4844H875.312ZM913.562 73.4844H916.062V70.9844H913.562V73.4844ZM913.562 133.672H911.062V136.172H913.562V133.672ZM971.781 133.672H974.281V131.172H971.781V133.672ZM971.781 171.922V174.422H974.281V171.922H971.781ZM913.562 171.922V169.422H911.062V171.922H913.562ZM915.812 228.031L913.508 229.001L913.513 229.012L913.518 229.024L915.812 228.031ZM931.281 243.5L930.26 245.782L930.286 245.793L930.311 245.804L931.281 243.5ZM971.781 245.75H974.281V243.25H971.781V245.75ZM971.781 284V286.5H974.281V284H971.781ZM942.672 281.5C933.711 281.5 925.326 279.827 917.494 276.496L915.537 281.097C924.017 284.704 933.071 286.5 942.672 286.5V281.5ZM917.516 276.506C909.633 273.063 902.718 268.405 896.754 262.531L893.246 266.094C899.657 272.407 907.086 277.406 915.515 281.088L917.516 276.506ZM896.781 262.558C890.907 256.594 886.25 249.679 882.807 241.796L878.225 243.798C881.906 252.227 886.905 259.656 893.219 266.067L896.781 262.558ZM882.816 241.818C879.485 233.986 877.812 225.602 877.812 216.641H872.812C872.812 226.242 874.609 235.295 878.215 243.775L882.816 241.818ZM877.812 216.641V171.922H872.812V216.641H877.812ZM875.312 169.422H856.609V174.422H875.312V169.422ZM859.109 171.922V133.672H854.109V171.922H859.109ZM856.609 136.172H875.312V131.172H856.609V136.172ZM877.812 133.672V73.4844H872.812V133.672H877.812ZM875.312 75.9844H913.562V70.9844H875.312V75.9844ZM911.062 73.4844V133.672H916.062V73.4844H911.062ZM913.562 136.172H971.781V131.172H913.562V136.172ZM969.281 133.672V171.922H974.281V133.672H969.281ZM971.781 169.422H913.562V174.422H971.781V169.422ZM911.062 171.922V216.641H916.062V171.922H911.062ZM911.062 216.641C911.062 220.991 911.874 225.119 913.508 229.001L918.117 227.061C916.751 223.819 916.062 220.353 916.062 216.641H911.062ZM913.518 229.024C915.141 232.776 917.38 236.088 920.232 238.94L923.768 235.404C921.37 233.006 919.484 230.224 918.107 227.039L913.518 229.024ZM920.232 238.94C923.084 241.791 926.434 244.07 930.26 245.782L932.302 241.218C929.003 239.742 926.166 237.803 923.768 235.404L920.232 238.94ZM930.311 245.804C934.194 247.439 938.322 248.25 942.672 248.25V243.25C938.959 243.25 935.494 242.561 932.251 241.196L930.311 245.804ZM942.672 248.25H971.781V243.25H942.672V248.25ZM969.281 245.75V284H974.281V245.75H969.281ZM971.781 281.5H942.672V286.5H971.781V281.5ZM1031.83 284V286.5H1034.33V284H1031.83ZM993.438 284H990.938V286.5H993.438V284ZM993.438 73.4844V70.9844H990.938V73.4844H993.438ZM1031.83 73.4844H1034.33V70.9844H1031.83V73.4844ZM1031.83 140H1029.33V145.02L1033.33 141.995L1031.83 140ZM1046.03 132.688L1046.72 135.09L1046.75 135.083L1046.77 135.077L1046.03 132.688ZM1087.09 135.781L1086.09 138.072L1086.1 138.077L1086.12 138.082L1087.09 135.781ZM1108.33 150.266L1106.53 152.006L1106.55 152.02L1106.56 152.033L1108.33 150.266ZM1122.67 171.781L1120.37 172.75L1120.37 172.766L1120.38 172.782L1122.67 171.781ZM1128.02 284V286.5H1130.52V284H1128.02ZM1089.34 284H1086.84V286.5H1089.34V284ZM1089.34 197.938V195.438H1086.84V197.938H1089.34ZM1089.62 197.938V200.438H1092.12V197.938H1089.62ZM1087.38 186.828L1085.07 187.798L1085.08 187.809L1085.08 187.82L1087.38 186.828ZM1034.08 186.828L1036.37 187.82L1036.38 187.809L1036.38 187.798L1034.08 186.828ZM1031.83 281.5H993.438V286.5H1031.83V281.5ZM995.938 284V73.4844H990.938V284H995.938ZM993.438 75.9844H1031.83V70.9844H993.438V75.9844ZM1029.33 73.4844V140H1034.33V73.4844H1029.33ZM1033.33 141.995C1037.72 138.686 1042.18 136.4 1046.72 135.09L1045.34 130.285C1040.13 131.787 1035.13 134.376 1030.32 138.005L1033.33 141.995ZM1046.77 135.077C1051.41 133.65 1056.13 132.938 1060.94 132.938V127.938C1055.62 127.938 1050.41 128.725 1045.3 130.298L1046.77 135.077ZM1060.94 132.938C1069.89 132.938 1078.27 134.653 1086.09 138.072L1088.09 133.49C1079.61 129.784 1070.55 127.938 1060.94 127.938V132.938ZM1086.12 138.082C1093.97 141.424 1100.77 146.065 1106.53 152.006L1110.12 148.525C1103.88 142.092 1096.53 137.076 1088.07 133.481L1086.12 138.082ZM1106.56 152.033C1112.42 157.889 1117.02 164.787 1120.37 172.75L1124.98 170.812C1121.39 162.275 1116.43 154.829 1110.1 148.498L1106.56 152.033ZM1120.38 172.782C1123.8 180.609 1125.52 188.986 1125.52 197.938H1130.52C1130.52 188.327 1128.67 179.266 1124.96 170.781L1120.38 172.782ZM1125.52 197.938V284H1130.52V197.938H1125.52ZM1128.02 281.5H1089.34V286.5H1128.02V281.5ZM1091.84 284V197.938H1086.84V284H1091.84ZM1089.34 200.438H1089.62V195.438H1089.34V200.438ZM1092.12 197.938C1092.12 193.673 1091.31 189.631 1089.67 185.836L1085.08 187.82C1086.44 190.963 1087.12 194.327 1087.12 197.938H1092.12ZM1089.68 185.858C1088.06 182.01 1085.82 178.642 1082.96 175.779L1079.42 179.315C1081.81 181.702 1083.69 184.521 1085.07 187.798L1089.68 185.858ZM1082.96 175.779C1080.1 172.927 1076.79 170.688 1073.04 169.065L1071.05 173.654C1074.24 175.031 1077.02 176.917 1079.42 179.315L1082.96 175.779ZM1073.04 169.065C1069.24 167.424 1065.2 166.609 1060.94 166.609V171.609C1064.55 171.609 1067.91 172.295 1071.05 173.654L1073.04 169.065ZM1060.94 166.609C1056.59 166.609 1052.46 167.42 1048.58 169.055L1050.52 173.663C1053.76 172.298 1057.22 171.609 1060.94 171.609V166.609ZM1048.58 169.055C1044.73 170.676 1041.36 172.916 1038.5 175.779L1042.03 179.315C1044.42 176.928 1047.24 175.043 1050.52 173.663L1048.58 169.055ZM1038.5 175.779C1035.63 178.642 1033.39 182.01 1031.77 185.858L1036.38 187.798C1037.76 184.521 1039.65 181.702 1042.03 179.315L1038.5 175.779ZM1031.78 185.836C1030.14 189.631 1029.33 193.673 1029.33 197.938H1034.33C1034.33 194.327 1035.01 190.963 1036.37 187.82L1031.78 185.836ZM1029.33 197.938V284H1034.33V197.938H1029.33Z" fill="#00FFFF"/>
</g>
</svg>
